<svg xmlns="http://www.w3.org/2000/svg" viewBox="0 0 512 512">
  <defs>
    <linearGradient id="bg" x1="0%" y1="0%" x2="100%" y2="100%">
      <stop offset="0%" stop-color="#8fd4ff"/>
      <stop offset="42%" stop-color="#4ba3ff"/>
      <stop offset="100%" stop-color="#0f2748"/>
    </linearGradient>
    <linearGradient id="glass" x1="0%" y1="0%" x2="100%" y2="100%">
      <stop offset="0%" stop-color="rgba(255,255,255,0.95)"/>
      <stop offset="100%" stop-color="rgba(255,255,255,0.22)"/>
    </linearGradient>
  </defs>
  <rect width="512" height="512" rx="120" fill="url(#bg)"/>
  <circle cx="132" cy="124" r="86" fill="#ffffff" opacity="0.22"/>
  <circle cx="386" cy="374" r="96" fill="#ff97b7" opacity="0.22"/>
  <rect x="72" y="88" width="368" height="336" rx="82" fill="#eef7ff" opacity="0.18"/>
  <path d="M147 161c20 0 36 16 36 36 0 28-36 57-36 57s-36-29-36-57c0-20 16-36 36-36Z" fill="#f9fbff"/>
  <circle cx="147" cy="197" r="12" fill="#4ba3ff"/>
  <path d="M147 225c49 8 89 16 119 38 29 21 47 44 71 44 14 0 27-8 38-20" fill="none" stroke="#f9fbff" stroke-linecap="round" stroke-width="22"/>
  <path d="M297 146c20 0 36 16 36 36 0 28-36 57-36 57s-36-29-36-57c0-20 16-36 36-36Z" fill="#f9fbff"/>
  <circle cx="297" cy="182" r="12" fill="#2f7af8"/>
  <path d="M364 300c20 0 36 16 36 36 0 28-36 57-36 57s-36-29-36-57c0-20 16-36 36-36Z" fill="#f9fbff"/>
  <circle cx="364" cy="336" r="12" fill="#74e2d2"/>
  <path d="M88 86h336c36 0 66 30 66 66v46c-64-16-104-61-168-61-98 0-104 99-194 112-34 5-57-2-100-16v-81c0-36 30-66 66-66Z" fill="#ffffff" opacity="0.13"/>
  <text x="256" y="436" text-anchor="middle" font-family="-apple-system, BlinkMacSystemFont, 'SF Pro Display', 'Segoe UI', sans-serif" font-size="56" font-weight="700" fill="#f8fbff">CN26</text>
</svg>
